<svg xmlns="http://www.w3.org/2000/svg" viewBox="0 0 1602 346" width="1602" height="346">
<rect width="1602" height="346" fill="#000000"/>
<g transform="translate(40,40) scale(0.25479)"><g transform="translate(0.000000,1044.000000) scale(0.100000,-0.100000)" fill="#FFFFFF" stroke="none">
<path d="M2700 10199 c-181 -12 -342 -38 -485 -79 -16 -4 -57 -16 -90 -25
-269 -76 -547 -213 -770 -379 -307 -228 -493 -423 -698 -731 -52 -79 -147
-252 -147 -269 0 -3 -12 -30 -26 -59 -221 -453 -291 -1022 -189 -1526 83 -405
283 -836 535 -1151 56 -70 347 -383 576 -619 78 -80 172 -180 210 -221 38 -41
159 -169 270 -285 110 -115 234 -246 274 -290 65 -70 255 -269 610 -640 58
-60 164 -173 235 -250 72 -77 175 -187 230 -245 55 -58 127 -135 159 -170 33
-36 103 -110 155 -165 190 -200 229 -242 320 -342 51 -57 97 -103 102 -103 14
0 793 751 797 768 2 8 -45 64 -105 126 -59 62 -164 173 -232 247 -196 211
-348 375 -446 479 -49 52 -155 164 -235 249 -80 85 -231 245 -336 355 -105
111 -217 230 -249 266 -32 36 -199 211 -370 390 -171 179 -333 350 -360 380
-27 30 -54 60 -59 66 -6 6 -117 122 -246 259 -129 136 -275 288 -323 339 -263
273 -400 621 -401 1011 0 202 14 283 88 518 70 219 247 461 486 662 144 121
387 229 620 277 151 32 440 31 588 0 228 -49 471 -166 625 -303 26 -22 53 -39
61 -37 29 6 816 752 816 773 0 25 -240 229 -365 311 -469 305 -1049 452 -1625
413z M7309 10196 c-3 -3 -54 -10 -114 -16 -155 -15 -290 -43 -502 -106 -156
-46 -221 -73 -438 -181 -283 -141 -337 -185 -850 -687 -214 -209 -434 -426
-490 -481 -280 -281 -2107 -2088 -2152 -2130 -29 -26 -53 -51 -53 -55 0 -4
130 -139 288 -301 159 -162 327 -338 373 -391 48 -55 92 -97 103 -97 18 -1
355 318 686 649 232 232 1664 1638 1880 1846 63 61 189 183 280 271 317 309
452 395 770 492 232 71 582 70 835 -3 662 -192 1123 -798 1125 -1478 0 -328
-132 -696 -353 -981 l-30 -39 184 -186 c263 -266 456 -466 530 -549 35 -39 71
-71 80 -72 37 -2 305 354 400 534 318 600 411 1209 279 1840 -51 246 -83 340
-197 575 -177 367 -465 739 -713 923 -30 23 -88 67 -129 100 -85 67 -170 125
-250 169 -66 37 -229 118 -237 118 -3 0 -33 14 -66 30 -230 114 -715 210
-1064 210 -94 0 -173 -2 -175 -4z M6455 7747 c-27 -29 -178 -176 -335 -327
-344 -332 -390 -379 -390 -401 0 -9 24 -41 53 -70 29 -30 133 -139 231 -244
99 -104 243 -255 321 -335 78 -80 244 -255 370 -390 126 -135 268 -285 315
-335 48 -49 124 -130 170 -180 46 -49 125 -133 175 -185 194 -202 283 -297
321 -340 21 -25 86 -94 144 -155 238 -248 338 -353 390 -411 30 -34 120 -131
200 -215 80 -85 177 -190 216 -235 390 -443 512 -955 356 -1489 -212 -722
-888 -1158 -1647 -1061 -259 33 -453 111 -693 278 -45 32 -89 58 -97 58 -16 0
-793 -744 -802 -768 -7 -17 34 -56 187 -179 240 -192 541 -349 860 -447 362
-112 824 -137 1200 -64 30 5 73 14 95 18 553 107 1130 448 1479 874 210 257
274 363 430 709 85 188 141 417 176 722 81 698 -99 1341 -538 1925 -37 50
-184 212 -326 360 -50 52 -122 129 -161 170 -490 526 -598 641 -665 710 -36
36 -130 135 -210 220 -230 243 -618 649 -810 845 -96 99 -250 259 -340 355
-91 96 -255 266 -365 378 -110 112 -208 217 -218 233 -25 39 -34 37 -92 -24z
M947 4743 c-88 -92 -181 -204 -225 -272 -19 -31 -54 -85 -77 -121 -23 -36 -59
-99 -80 -140 -21 -41 -41 -79 -45 -85 -6 -9 -22 -48 -90 -215 -28 -68 -75
-211 -100 -304 -85 -321 -105 -858 -41 -1137 6 -24 20 -86 31 -138 161 -716
621 -1343 1286 -1753 267 -165 638 -292 999 -342 214 -30 569 -22 790 18 44 8
96 17 115 21 19 3 78 17 130 31 83 23 142 42 340 112 135 48 470 244 619 362
68 54 191 170 456 429 116 113 341 332 500 486 328 316 773 752 945 925 210
210 1214 1197 1253 1230 l37 32 -31 37 c-33 37 -436 457 -634 660 l-111 113
-65 -63 c-35 -35 -285 -280 -554 -544 -270 -264 -535 -524 -590 -578 -55 -54
-219 -214 -365 -355 -146 -141 -312 -304 -370 -362 -58 -58 -164 -161 -235
-230 -448 -432 -706 -683 -759 -738 -156 -163 -455 -338 -676 -395 -335 -87
-575 -86 -890 4 -399 115 -847 528 -984 908 -14 39 -51 147 -66 197 -82 257
-64 640 42 944 49 138 203 405 272 469 14 14 26 29 26 34 0 17 -721 781 -769
815 -16 11 -26 5 -84 -55z"/>
</g></g>
<g transform="translate(419.7,247.0) scale(0.21234)" fill="#FFFFFF"><path transform="translate(0.0,0) scale(1,-1)" d="M392 704Q503 704 589.5 649.5Q676 595 715 495H578Q551 550 503.0 577.0Q455 604 392 604Q323 604 269.0 573.0Q215 542 184.5 484.0Q154 426 154 349Q154 272 184.5 214.0Q215 156 269.0 124.5Q323 93 392 93Q455 93 503.0 120.0Q551 147 578 202H715Q676 102 589.5 48.0Q503 -6 392 -6Q294 -6 213.0 39.5Q132 85 84.5 166.0Q37 247 37 349Q37 451 84.5 532.0Q132 613 213.5 658.5Q295 704 392 704Z"/><path transform="translate(853.0,0) scale(1,-1)" d="M37 349Q37 451 84.5 532.0Q132 613 213.5 658.5Q295 704 392 704Q490 704 571.5 658.5Q653 613 700.0 532.0Q747 451 747 349Q747 247 700.0 165.5Q653 84 571.5 38.5Q490 -7 392 -7Q295 -7 213.5 38.5Q132 84 84.5 165.5Q37 247 37 349ZM630 349Q630 426 599.5 484.0Q569 542 515.0 573.0Q461 604 392 604Q323 604 269.0 573.0Q215 542 184.5 484.0Q154 426 154 349Q154 272 184.5 213.5Q215 155 269.0 123.5Q323 92 392 92Q461 92 515.0 123.5Q569 155 599.5 213.5Q630 272 630 349Z"/><path transform="translate(1717.0,0) scale(1,-1)" d="M671 345Q671 239 625.5 161.0Q580 83 496.5 41.5Q413 0 302 0H75V695H302Q413 695 496.5 652.5Q580 610 625.5 530.5Q671 451 671 345ZM554 345Q554 466 489.0 534.0Q424 602 302 602H189V93H302Q424 93 489.0 159.0Q554 225 554 345Z"/><path transform="translate(2506.0,0) scale(1,-1)" d="M189 603V399H429V306H189V93H459V0H75V696H459V603Z"/><path transform="translate(3110.0,0) scale(1,-1)" d="M436 0 276 278H189V0H75V695H315Q395 695 450.5 667.0Q506 639 533.5 592.0Q561 545 561 487Q561 419 521.5 363.5Q482 308 400 288L572 0ZM189 369H315Q379 369 411.5 401.0Q444 433 444 487Q444 541 412.0 571.5Q380 602 315 602H189Z"/><path transform="translate(3822.0,0) scale(1,-1)" d="M392 704Q503 704 589.5 649.5Q676 595 715 495H578Q551 550 503.0 577.0Q455 604 392 604Q323 604 269.0 573.0Q215 542 184.5 484.0Q154 426 154 349Q154 272 184.5 214.0Q215 156 269.0 124.5Q323 93 392 93Q455 93 503.0 120.0Q551 147 578 202H715Q676 102 589.5 48.0Q503 -6 392 -6Q294 -6 213.0 39.5Q132 85 84.5 166.0Q37 247 37 349Q37 451 84.5 532.0Q132 613 213.5 658.5Q295 704 392 704Z"/><path transform="translate(4675.0,0) scale(1,-1)" d="M630 695V0H516V304H189V0H75V695H189V397H516V695Z"/></g>
</svg>