<svg xmlns="http://www.w3.org/2000/svg" viewBox="0 0 1104 1104" width="1104" height="1104">
<rect width="1104" height="1104" fill="#000000"/>
<g transform="translate(32,30)"><g transform="translate(0.000000,1044.000000) scale(0.100000,-0.100000)" fill="#FFFFFF" stroke="none">

<path d="M2700 10199 c-181 -12 -342 -38 -485 -79 -16 -4 -57 -16 -90 -25
-269 -76 -547 -213 -770 -379 -307 -228 -493 -423 -698 -731 -52 -79 -147
-252 -147 -269 0 -3 -12 -30 -26 -59 -221 -453 -291 -1022 -189 -1526 83 -405
283 -836 535 -1151 56 -70 347 -383 576 -619 78 -80 172 -180 210 -221 38 -41
159 -169 270 -285 110 -115 234 -246 274 -290 65 -70 255 -269 610 -640 58
-60 164 -173 235 -250 72 -77 175 -187 230 -245 55 -58 127 -135 159 -170 33
-36 103 -110 155 -165 190 -200 229 -242 320 -342 51 -57 97 -103 102 -103 14
0 793 751 797 768 2 8 -45 64 -105 126 -59 62 -164 173 -232 247 -196 211
-348 375 -446 479 -49 52 -155 164 -235 249 -80 85 -231 245 -336 355 -105
111 -217 230 -249 266 -32 36 -199 211 -370 390 -171 179 -333 350 -360 380
-27 30 -54 60 -59 66 -6 6 -117 122 -246 259 -129 136 -275 288 -323 339 -263
273 -400 621 -401 1011 0 202 14 283 88 518 70 219 247 461 486 662 144 121
387 229 620 277 151 32 440 31 588 0 228 -49 471 -166 625 -303 26 -22 53 -39
61 -37 29 6 816 752 816 773 0 25 -240 229 -365 311 -469 305 -1049 452 -1625
413z M7309 10196 c-3 -3 -54 -10 -114 -16 -155 -15 -290 -43 -502 -106 -156
-46 -221 -73 -438 -181 -283 -141 -337 -185 -850 -687 -214 -209 -434 -426
-490 -481 -280 -281 -2107 -2088 -2152 -2130 -29 -26 -53 -51 -53 -55 0 -4
130 -139 288 -301 159 -162 327 -338 373 -391 48 -55 92 -97 103 -97 18 -1
355 318 686 649 232 232 1664 1638 1880 1846 63 61 189 183 280 271 317 309
452 395 770 492 232 71 582 70 835 -3 662 -192 1123 -798 1125 -1478 0 -328
-132 -696 -353 -981 l-30 -39 184 -186 c263 -266 456 -466 530 -549 35 -39 71
-71 80 -72 37 -2 305 354 400 534 318 600 411 1209 279 1840 -51 246 -83 340
-197 575 -177 367 -465 739 -713 923 -30 23 -88 67 -129 100 -85 67 -170 125
-250 169 -66 37 -229 118 -237 118 -3 0 -33 14 -66 30 -230 114 -715 210
-1064 210 -94 0 -173 -2 -175 -4z M6455 7747 c-27 -29 -178 -176 -335 -327
-344 -332 -390 -379 -390 -401 0 -9 24 -41 53 -70 29 -30 133 -139 231 -244
99 -104 243 -255 321 -335 78 -80 244 -255 370 -390 126 -135 268 -285 315
-335 48 -49 124 -130 170 -180 46 -49 125 -133 175 -185 194 -202 283 -297
321 -340 21 -25 86 -94 144 -155 238 -248 338 -353 390 -411 30 -34 120 -131
200 -215 80 -85 177 -190 216 -235 390 -443 512 -955 356 -1489 -212 -722
-888 -1158 -1647 -1061 -259 33 -453 111 -693 278 -45 32 -89 58 -97 58 -16 0
-793 -744 -802 -768 -7 -17 34 -56 187 -179 240 -192 541 -349 860 -447 362
-112 824 -137 1200 -64 30 5 73 14 95 18 553 107 1130 448 1479 874 210 257
274 363 430 709 85 188 141 417 176 722 81 698 -99 1341 -538 1925 -37 50
-184 212 -326 360 -50 52 -122 129 -161 170 -490 526 -598 641 -665 710 -36
36 -130 135 -210 220 -230 243 -618 649 -810 845 -96 99 -250 259 -340 355
-91 96 -255 266 -365 378 -110 112 -208 217 -218 233 -25 39 -34 37 -92 -24z
M947 4743 c-88 -92 -181 -204 -225 -272 -19 -31 -54 -85 -77 -121 -23 -36 -59
-99 -80 -140 -21 -41 -41 -79 -45 -85 -6 -9 -22 -48 -90 -215 -28 -68 -75
-211 -100 -304 -85 -321 -105 -858 -41 -1137 6 -24 20 -86 31 -138 161 -716
621 -1343 1286 -1753 267 -165 638 -292 999 -342 214 -30 569 -22 790 18 44 8
96 17 115 21 19 3 78 17 130 31 83 23 142 42 340 112 135 48 470 244 619 362
68 54 191 170 456 429 116 113 341 332 500 486 328 316 773 752 945 925 210
210 1214 1197 1253 1230 l37 32 -31 37 c-33 37 -436 457 -634 660 l-111 113
-65 -63 c-35 -35 -285 -280 -554 -544 -270 -264 -535 -524 -590 -578 -55 -54
-219 -214 -365 -355 -146 -141 -312 -304 -370 -362 -58 -58 -164 -161 -235
-230 -448 -432 -706 -683 -759 -738 -156 -163 -455 -338 -676 -395 -335 -87
-575 -86 -890 4 -399 115 -847 528 -984 908 -14 39 -51 147 -66 197 -82 257
-64 640 42 944 49 138 203 405 272 469 14 14 26 29 26 34 0 17 -721 781 -769
815 -16 11 -26 5 -84 -55z"/>

</g></g>
</svg>